<?xml version="1.0" standalone="no"?>
<!DOCTYPE svg PUBLIC "-//W3C//DTD SVG 20010904//EN"
 "http://www.w3.org/TR/2001/REC-SVG-20010904/DTD/svg10.dtd">
<svg version="1.0" xmlns="http://www.w3.org/2000/svg"
 width="1024.000000pt" height="1024.000000pt" viewBox="0 0 1024.000000 1024.000000"
 preserveAspectRatio="xMidYMid meet">

<g transform="translate(0.000000,1024.000000) scale(0.100000,-0.100000)"
fill="#000000" stroke="none">
<path d="M4967 8890 c-391 -71 -699 -370 -778 -755 -18 -84 -19 -154 -19
-1087 l0 -997 -1042 -3 -1043 -3 -90 -28 c-276 -84 -491 -261 -610 -502 -74
-150 -90 -223 -90 -410 0 -137 3 -171 23 -239 81 -280 260 -490 525 -617 45
-21 118 -49 162 -61 l80 -23 1042 -3 1042 -3 3 -1032 3 -1032 28 -90 c102
-327 337 -562 662 -662 83 -25 103 -27 260 -27 157 0 177 2 260 27 358 110
613 388 681 745 11 60 14 256 14 1073 l0 999 1009 0 c1116 0 1091 -1 1261 65
282 109 487 330 577 622 24 80 27 103 27 253 1 143 -2 175 -22 244 -48 167
-128 303 -247 421 -119 120 -270 208 -440 256 l-80 23 -1042 3 -1042 4 -3
1032 c-4 1139 2 1045 -68 1225 -79 205 -257 393 -470 499 -124 60 -228 85
-385 88 -77 2 -162 0 -188 -5z"/>
</g>
</svg>
